PathFileType	3	(X/Y/Z)	D:\minhoCalibration\240510\subject1_KPNP\preferred\preferred04.trc
DataRate	CameraRate	NumFrames	NumMarkers	Units	OrigDataRate	OrigDataStartFrame	OrigNumFrames
200.0	200.0	27	10	mm	200.0	260	182	
Frame#	Time	Left_Ankle_Outer1			Left_Ankle_Inner1			Left_Knee_Outer1			Left_Knee_Inner1			Left_Wrist1			Right_Wrist1			Right_Knee_Inner1			Right_Knee_Outer1			Right_Ankle_Inner1			Right_Ankle_Outer1			
		X1	Y1	Z1	X2	Y2	Z2	X3	Y3	Z3	X4	Y4	Z4	X5	Y5	Z5	X6	Y6	Z6	X7	Y7	Z7	X8	Y8	Z8	X9	Y9	Z9	X10	Y10	Z10	
260	1.29	-539.73114	123.92165	-541.45892	-582.00928	134.12187	-504.9256	-386.73489	538.65503	-410.96426	-492.61978	519.42273	-380.85349	-372.10715	1002.6876	-553.96808	-717.2182	1065.1284	-471.13953	-480.87711	784.15131	-135.98521	-591.87885	808.35638	-112.52104	-576.40637	364.85178	-13.972248	-668.54492	367.60315	14.034389
261	1.295	-539.65063	123.18192	-542.30487	-582.30957	132.99878	-505.48315	-386.60986	537.28107	-410.86887	-492.88791	518.00446	-380.63101	-372.26819	1001.5573	-552.50525	-718.35864	1061.1445	-474.02325	-486.46594	774.7619	-139.59326	-597.20996	799.57941	-117.95377	-587.25592	352.10168	-34.880936	-679.87085	354.12503	-9.323472
262	1.3	-539.77362	122.20585	-542.65753	-582.16974	132.23146	-505.98669	-386.09686	536.03149	-410.55841	-492.15765	516.84082	-380.68863	-372.31769	1000.4211	-551.2262	-719.47021	1057.2686	-476.80362	-492.11526	765.39935	-143.34785	-603.20386	791.26013	-122.3286	-596.15924	339.62085	-58.45945	-691.245	341.53711	-33.499313
263	1.305	-540.14136	121.25095	-542.5871	-582.91815	131.60277	-506.40207	-385.99576	534.66046	-410.13245	-491.91824	515.73291	-380.35464	-372.4859	999.12024	-550.05933	-720.61121	1053.3324	-479.61295	-497.8118	755.97644	-147.11337	-608.92963	782.66901	-127.36213	-607.59979	327.9375	-79.23983	-701.87683	329.74701	-57.663952
264	1.31	-540.4325	120.59902	-542.7348	-583.5556	131.03824	-506.79803	-385.79193	533.47913	-409.4852	-492.41721	514.62305	-379.59662	-372.56918	997.96198	-548.93945	-721.55402	1049.4591	-482.58487	-503.53683	746.49182	-150.97749	-614.8363	773.58734	-132.74034	-617.83026	317.22055	-101.41621	-712.17371	318.87445	-82.832764
265	1.315	-540.51068	120.08212	-543.22443	-584.3598	129.98329	-507.35992	-385.64279	532.40588	-408.75	-491.53345	513.8512	-379.16061	-372.61792	996.72101	-547.98102	-722.32996	1045.8677	-485.3877	-509.3118	736.89966	-154.81998	-621.22577	764.31982	-138.03119	-627.55756	306.75507	-124.71724	-722.42731	308.91241	-108.39876
266	1.32	-540.73798	119.44115	-543.30377	-584.90179	129.81552	-507.5015	-385.34433	531.39709	-407.87915	-492.0148	512.79675	-378.34592	-372.76358	995.5293	-547.02124	-722.9093	1042.3303	-488.17429	-515.30585	727.26666	-158.6955	-627.617	754.56146	-144.02797	-636.77161	297.43494	-148.32208	-732.19061	299.74814	-134.29671
267	1.325	-540.93152	118.84954	-543.38232	-585.23456	129.4632	-507.56866	-385.29822	530.50305	-406.80887	-491.47424	512.10742	-377.43781	-372.75531	994.43219	-546.24146	-723.43451	1038.9684	-491.02652	-521.3175	717.63226	-162.88835	-634.46667	745.04181	-149.77867	-646.20636	288.6496	-171.83545	-741.96332	291.31952	-161.51231
268	1.33	-541.08594	118.26768	-543.45667	-585.88757	128.90103	-508.58301	-385.53793	529.57074	-405.77597	-491.83871	511.06589	-376.9025	-372.88803	993.35272	-545.53101	-723.98682	1035.7627	-493.63721	-527.47015	708.03925	-167.41928	-641.1333	735.7262	-155.84914	-654.93201	281.39554	-194.48415	-750.91766	284.00696	-188.3653
269	1.335	-541.2749	117.68785	-543.55975	-586.05511	128.33939	-508.66754	-385.48309	528.66235	-404.61728	-491.71573	510.68909	-376.04968	-372.89465	992.32794	-544.87012	-724.6662	1032.7179	-496.08597	-533.7951	698.47937	-172.37311	-648.03845	725.97095	-162.47932	-662.80719	273.72226	-219.7364	-758.77161	277.26917	-213.35738
270	1.34	-541.27612	117.15062	-543.78076	-586.38763	127.80775	-509.08817	-385.79779	527.74573	-403.45081	-491.76694	510.1564	-375.28418	-372.80832	991.4754	-544.16614	-724.87457	1029.5791	-499.06958	-540.04218	689.1543	-177.84953	-654.59131	716.70276	-169.46043	-670.99829	266.76242	-243.87642	-767.00226	271.29865	-240.08615
271	1.345	-541.30078	116.55592	-543.95648	-586.08984	127.02229	-508.69394	-385.95941	526.89453	-402.26413	-492.30005	509.21976	-374.62607	-372.77615	990.60156	-543.41699	-725.18994	1026.624	-501.92053	-546.47223	680.15015	-183.49803	-661.12042	707.17603	-177.10992	-678.31647	260.3428	-269.35364	-774.30664	266.02545	-266.22211
272	1.35	-541.26337	115.88005	-544.16156	-586.20923	126.40842	-509.10913	-386.31985	525.99164	-401.14932	-492.5119	508.42117	-374.12323	-372.69904	989.86304	-542.60767	-725.53851	1023.6315	-504.86136	-553.39246	670.99316	-189.80945	-667.88605	698.03552	-184.95551	-685.44385	255.5269	-292.44632	-781.25208	261.38864	-292.42145
273	1.355	-541.29779	115.17008	-544.43384	-587.20227	126.05456	-511.10703	-386.73889	525.17853	-399.93546	-493.06281	507.86597	-373.20389	-372.65665	989.12555	-541.70831	-725.98297	1020.8641	-507.87885	-560.31763	662.00922	-196.3266	-674.70569	688.83838	-193.40234	-691.65247	250.60925	-317.01169	-788.00098	257.69028	-318.86484
274	1.36	-541.31757	114.32632	-544.29608	-587.30908	125.39748	-511.41202	-387.25037	524.42273	-398.79703	-493.83475	506.77222	-372.98996	-372.58197	988.53668	-540.77277	-726.25769	1018.1881	-511.08389	-567.26392	653.17084	-203.28549	-681.7251	679.56128	-202.31442	-698.12146	246.0659	-341.58231	-793.83044	254.13597	-344.74423
275	1.365	-541.01306	113.86084	-544.95673	-587.27283	124.68668	-511.75595	-387.89258	523.51331	-397.73651	-494.58545	505.9343	-372.65024	-372.55792	987.87384	-539.80292	-726.58411	1015.4902	-514.39447	-574.23846	644.51031	-210.47929	-688.9234	670.61554	-211.46571	-703.23596	242.04045	-365.82095	-799.25464	251.21349	-370.36908
276	1.37	-540.93817	113.00057	-545.19244	-587.38293	123.91748	-512.37555	-388.23764	522.73914	-396.77841	-495.83481	504.94067	-372.3688	-372.67972	987.26117	-538.55011	-726.90906	1012.9318	-517.80121	-581.19476	636.22821	-217.22452	-695.69818	662.24701	-221.20717	-708.42175	238.77345	-389.31793	-803.87292	248.71286	-395.5947
277	1.375	-540.78601	112.40486	-545.47778	-587.43762	123.20052	-512.75757	-389.00424	521.92139	-395.78098	-496.74857	504.24338	-372.21463	-372.7453	986.64923	-537.30939	-727.15082	1010.3954	-521.39264	-588.51654	627.68341	-225.89107	-703.15601	653.82379	-231.06593	-712.82623	236.13506	-412.55222	-808.17975	246.78355	-420.58365
278	1.38	-540.76685	111.5601	-545.44891	-587.12903	122.3195	-512.51508	-389.88794	521.23865	-394.71649	-497.34	503.7543	-372.81863	-372.92313	986.08673	-535.91302	-727.56879	1007.912	-524.99701	-595.70282	619.54034	-234.19168	-710.20984	645.71588	-241.68365	-716.96399	233.80391	-435.04657	-812.00507	245.22214	-445.30661
279	1.385	-540.56689	111.07491	-545.97125	-587.14526	121.64686	-512.98584	-390.65515	520.50684	-393.78275	-498.40094	503.35312	-372.66565	-373.12952	985.52179	-534.50061	-727.8302	1005.5674	-528.57764	-602.9212	611.59082	-242.80591	-717.49017	637.56696	-252.81728	-720.26862	232.31218	-457.53775	-815.18933	244.06421	-469.6514
280	1.39	-540.39362	110.59557	-546.19073	-587.24133	121.06812	-513.45129	-391.74557	519.97253	-392.69724	-499.89374	502.5878	-371.76407	-373.45648	984.92902	-533.07452	-728.08173	1003.3022	-532.42139	-610.24902	603.96649	-251.67558	-725.01837	629.84106	-263.905	-723.85492	229.96744	-479.90179	-817.88086	243.21835	-493.53098
281	1.395	-540.1972	110.13814	-546.39075	-587.24622	120.47599	-513.86304	-392.75266	519.49084	-391.64883	-501.83243	501.75327	-372.72681	-373.98709	984.30249	-531.51575	-728.44635	1001.107	-536.14154	-617.58978	596.57599	-260.97797	-732.12897	622.31262	-275.46942	-726.59973	228.92386	-501.26785	-820.0274	242.54726	-517.14679
282	1.4	-539.92273	109.65661	-546.58057	-587.25513	119.92671	-514.27869	-393.38089	519.16559	-390.58508	-502.84238	501.68503	-372.97226	-374.43146	983.63458	-530.13953	-728.5766	998.98889	-540.03687	-624.93335	589.49182	-270.32983	-739.50244	615.41681	-287.1712	-727.94525	228.53448	-522.5733	-821.67419	242.20229	-540.19385
283	1.405	-539.65503	109.25346	-546.78247	-587.13757	119.41475	-514.55273	-394.47635	518.77856	-389.52759	-504.58032	500.9213	-372.9653	-375.15106	982.95068	-528.69659	-728.94543	996.87244	-543.87982	-632.36664	582.63519	-279.91296	-746.78516	608.68378	-299.24426	-729.97589	227.41585	-543.02411	-822.71301	242.01746	-562.77411
284	1.41	-539.43066	108.82658	-546.99573	-586.92426	118.97984	-514.81677	-395.47998	518.47327	-388.49518	-505.97424	500.68097	-372.78497	-375.90564	982.29089	-527.38275	-729.28546	994.9801	-547.63538	-639.79779	576.14166	-289.61374	-753.47913	602.14526	-311.8779	-731.17621	226.69621	-563.32733	-823.26538	242.06656	-584.77643
285	1.415	-539.18176	108.54572	-547.15912	-586.86322	118.54086	-515.24451	-396.4935	518.37073	-387.3577	-506.92856	500.95987	-372.3429	-377.30725	981.67499	-525.76422	-729.60278	993.25574	-551.47168	-647.30432	570.09741	-299.44281	-760.31586	596.13226	-324.86578	-731.67157	225.87471	-583.20605	-823.3692	242.28247	-606.35547
286	1.42	-538.82593	108.23264	-547.38324	-586.77393	118.16347	-515.59753	-397.47815	518.55676	-386.01981	-508.39383	500.18262	-372.76895	-377.91	980.82233	-524.79797	-730.02753	991.5863	-555.25806	-654.73322	564.34271	-309.56915	-766.97717	590.61041	-338.05148	-731.45526	226.00708	-602.30206	-823.01605	242.82494	-627.42462
